<?xml version="1.0" standalone="no"?>
<!DOCTYPE svg PUBLIC "-//W3C//DTD SVG 20010904//EN"
 "http://www.w3.org/TR/2001/REC-SVG-20010904/DTD/svg10.dtd">
<svg version="1.0" xmlns="http://www.w3.org/2000/svg"
 width="1020.000000pt" height="775.000000pt" viewBox="0 0 1020.000000 775.000000"
 preserveAspectRatio="xMidYMid meet">
<metadata>
Created by potrace 1.16, written by Peter Selinger 2001-2019
</metadata>
<g transform="translate(0.000000,775.000000) scale(0.100000,-0.100000)"
fill="#000000" stroke="none">
<path d="M4210 4884 c-25 -9 -58 -25 -73 -36 -15 -11 -34 -17 -42 -15 -7 3
-16 -1 -19 -9 -3 -8 -14 -14 -26 -14 -41 0 -60 -30 -60 -93 0 -63 19 -110 49
-127 11 -5 46 -10 79 -10 l59 0 7 -47 c8 -63 35 -106 81 -127 44 -21 79 -15
101 19 9 14 24 25 33 25 20 0 105 -84 100 -97 -11 -28 -194 -261 -201 -257 -5
3 -16 23 -25 45 -16 40 -32 48 -55 27 -8 -7 -22 -18 -32 -23 -14 -8 -24 -37
-37 -100 -23 -111 -24 -112 -49 -208 -11 -43 -18 -82 -15 -87 4 -6 1 -10 -4
-10 -6 0 -10 -3 -9 -7 3 -10 -19 -76 -42 -128 -15 -33 -37 -143 -31 -153 6
-11 -41 -37 -115 -63 -47 -17 -98 -35 -113 -41 -14 -6 -34 -13 -44 -15 -10 -1
-30 -11 -44 -20 -15 -10 -28 -17 -30 -15 -21 18 -34 -27 -35 -123 -2 -100 2
-101 153 -71 118 24 222 46 300 65 30 7 56 0 188 -51 122 -46 156 -56 168 -47
8 7 13 22 11 33 -2 16 -25 29 -106 61 -76 29 -99 41 -85 46 10 4 60 20 111 35
l94 28 68 98 68 98 34 -43 c18 -23 74 -96 123 -162 49 -66 102 -137 118 -158
15 -20 27 -46 25 -56 -2 -11 -73 -71 -163 -139 -88 -65 -193 -151 -234 -191
l-74 -71 -62 0 -62 0 -113 -291 c-91 -232 -116 -289 -129 -285 -9 2 -46 16
-82 30 -100 37 -207 56 -323 56 -737 0 -1212 -850 -876 -1567 124 -265 336
-454 610 -544 l85 -28 -1037 -1 c-571 0 -1038 3 -1038 8 0 4 14 61 31 127 27
103 31 139 32 250 1 153 -19 242 -84 365 -46 89 -149 221 -212 273 l-45 36
-21 -67 c-27 -85 -51 -197 -51 -242 0 -19 -3 -52 -6 -72 -6 -33 -9 -36 -26
-27 -11 6 -29 12 -40 14 -12 3 -24 9 -27 14 -8 12 -107 51 -114 45 -3 -3 -14
-1 -25 5 -12 6 -37 13 -57 16 -21 2 -46 7 -57 11 -19 6 -20 3 -13 -47 20 -148
93 -327 177 -434 89 -113 248 -212 403 -252 70 -18 67 -18 -593 -21 -430 -1
-662 -6 -662 -12 0 -7 1667 -10 4910 -10 3267 0 4910 3 4910 10 0 7 -189 10
-546 10 -516 0 -546 1 -539 18 27 68 76 230 89 292 98 486 -16 1153 -316 1850
-68 158 -229 480 -239 480 -15 0 -11 -11 65 -160 340 -668 524 -1352 503
-1870 -9 -214 -49 -415 -112 -555 l-24 -55 -913 1 -913 0 85 28 c167 54 287
129 411 257 90 94 148 177 200 288 301 643 -46 1411 -701 1552 -87 18 -263 18
-358 -2 -42 -8 -115 -31 -162 -50 -47 -20 -92 -37 -100 -40 -11 -4 -60 72
-178 275 -118 202 -169 281 -185 285 -12 3 -114 6 -227 7 -113 0 -242 4 -288
7 l-83 7 101 74 c170 125 262 240 277 346 3 25 6 45 7 45 11 0 184 -76 226
-99 119 -64 268 -78 357 -32 41 20 83 57 83 72 0 4 -26 10 -57 14 -124 15
-571 112 -590 127 -7 6 -10 14 -7 19 3 5 2 15 -3 22 -4 6 -9 20 -10 30 -2 10
-8 28 -15 40 -7 12 -13 27 -14 32 -1 6 -12 33 -25 60 -40 87 -104 178 -169
240 -35 33 -63 62 -63 65 1 3 -14 23 -32 45 -19 22 -65 81 -104 130 -39 50
-80 100 -91 111 -11 12 -20 27 -20 32 0 6 -8 16 -17 21 -10 6 -14 11 -9 11 4
0 -5 15 -20 34 -16 18 -51 66 -79 106 -27 40 -54 78 -60 84 -5 7 -18 25 -27
41 -42 76 -165 123 -285 110 -65 -7 -65 -7 -57 17 44 137 22 296 -52 377 -68
76 -223 112 -324 75z m165 -1124 c18 -20 18 -23 -31 -121 -34 -71 -57 -105
-76 -115 -15 -8 -29 -10 -32 -5 -6 9 104 261 115 261 3 0 14 -9 24 -20z m19
-1147 c-4 -10 -9 -34 -11 -53 -7 -61 121 -300 379 -707 94 -148 109 -177 106
-207 -3 -35 -6 -32 -308 303 -167 187 -308 337 -313 334 -4 -3 -2 -12 6 -21
29 -34 561 -628 593 -662 32 -35 33 -36 50 -205 16 -165 16 -169 -2 -182 -11
-8 -59 -38 -108 -67 -49 -29 -96 -62 -103 -73 -13 -19 -12 -23 5 -32 11 -6 59
-14 107 -17 48 -4 92 -13 99 -20 7 -7 12 -31 11 -55 -2 -33 2 -43 16 -46 22
-6 26 -27 34 -184 6 -109 5 -127 -10 -139 -25 -21 -56 -67 -65 -100 -6 -21 -4
-38 9 -64 l18 -34 -111 -86 c-88 -68 -126 -91 -186 -111 -129 -43 -184 -96
-129 -125 11 -7 48 -18 82 -25 56 -12 22 -13 -333 -14 l-395 0 87 29 c100 33
147 56 238 115 317 204 508 620 470 1022 -32 337 -200 636 -456 810 -46 31
-84 61 -84 66 0 8 164 434 205 535 13 30 17 32 61 32 40 0 45 -2 38 -17z
m1371 -19 l130 -6 145 -245 c80 -136 153 -261 162 -278 l17 -33 -57 -37 c-75
-50 -207 -183 -262 -264 -62 -92 -125 -233 -155 -341 -29 -112 -49 -284 -40
-356 5 -42 3 -53 -10 -58 -22 -8 -35 1 -35 23 0 30 -58 109 -98 135 l-40 25
44 168 c266 1016 317 1225 291 1192 -2 -2 -82 -305 -177 -674 -95 -369 -176
-673 -179 -677 -4 -4 -16 -5 -29 -2 -15 5 -25 18 -33 48 -13 46 -45 96 -62 96
-15 0 -87 132 -87 158 0 11 -11 45 -25 75 -21 49 -24 67 -20 134 3 43 12 231
20 418 8 187 18 378 21 425 l6 85 171 -2 c95 -2 231 -6 302 -9z m-1885 -484
c96 -27 170 -60 170 -73 0 -6 -73 -197 -161 -424 -89 -227 -159 -416 -155
-420 3 -3 8 -4 10 -2 2 2 76 191 165 419 89 228 164 416 166 419 3 2 35 -16
72 -41 230 -152 385 -390 448 -684 23 -106 24 -331 1 -435 -86 -403 -343 -696
-703 -806 -78 -23 -106 -26 -238 -27 -164 -1 -224 10 -358 65 -144 60 -330
213 -424 350 -157 228 -224 535 -178 818 69 426 376 767 765 852 115 25 312
20 420 -11z m3035 3 c174 -49 315 -134 443 -267 155 -162 251 -354 287 -581
94 -575 -262 -1119 -800 -1222 -113 -22 -282 -13 -398 21 -369 109 -642 436
-711 852 l-7 41 68 10 c37 6 224 32 416 59 215 30 347 52 347 59 0 7 -142 -9
-412 -46 -227 -32 -415 -55 -418 -53 -11 12 -1 244 14 315 48 228 140 402 291
555 72 73 189 163 199 153 2 -2 102 -170 221 -374 119 -203 221 -374 226 -379
5 -5 11 -7 14 -4 3 3 -96 178 -219 389 l-226 384 43 22 c53 28 145 59 228 78
89 20 300 14 394 -12z m-1446 -1081 c-16 -58 -27 -107 -25 -110 4 -4 137 13
185 24 23 5 24 4 17 -42 -9 -67 -48 -128 -102 -160 -38 -23 -53 -26 -104 -22
-47 3 -68 10 -97 34 -57 45 -84 106 -81 179 l3 60 95 10 95 10 2 60 c1 33 2
63 2 67 1 3 9 4 20 1 17 -4 17 -10 -10 -111z m99 72 c29 -23 88 -121 78 -132
-7 -7 -176 -29 -176 -23 0 24 47 181 54 181 5 0 25 -12 44 -26z m-296 -302
c53 -79 127 -114 216 -102 89 13 168 102 179 204 4 32 11 46 24 49 14 4 19 -3
24 -37 64 -414 330 -742 701 -865 l89 -30 -730 1 c-648 0 -722 2 -660 14 96
19 124 32 131 61 4 13 -1 77 -10 141 -15 101 -16 161 -9 442 5 203 10 295 13
244 5 -66 11 -89 32 -122z"/>
<path d="M8924 3100 c-32 -13 -54 -55 -54 -104 0 -96 104 -143 171 -76 27 26
30 35 28 82 -2 44 -8 58 -32 81 -30 28 -71 34 -113 17z"/>
<path d="M8113 2965 c-67 -28 -85 -130 -34 -187 25 -28 36 -33 75 -33 60 0 96
34 103 97 11 94 -63 158 -144 123z"/>
<path d="M8907 2650 c-8 -19 -137 -792 -137 -822 0 -13 4 -18 9 -13 12 13 144
809 138 832 -3 15 -5 15 -10 3z"/>
<path d="M7724 2182 c-31 -25 -44 -55 -44 -102 0 -58 50 -110 105 -110 55 0
105 52 105 110 0 75 -39 120 -105 120 -23 0 -49 -8 -61 -18z"/>
<path d="M8224 2076 c-44 -20 -64 -52 -64 -107 0 -87 77 -142 149 -105 82 43
80 177 -4 212 -41 17 -42 17 -81 0z"/>
<path d="M7957 1932 c-6 -8 705 -844 723 -850 7 -3 11 0 9 6 -4 11 -719 852
-725 852 -1 0 -5 -3 -7 -8z"/>
<path d="M1085 1771 c-51 -23 -118 -98 -133 -149 -53 -176 56 -346 223 -346
143 0 245 122 233 278 -14 174 -177 284 -323 217z m163 -17 c20 -8 52 -29 71
-47 131 -125 72 -366 -100 -407 -97 -23 -203 36 -245 136 -20 48 -18 150 5
199 49 108 169 161 269 119z"/>
<path d="M7992 1600 c-67 -41 -62 -159 9 -195 35 -19 53 -19 89 0 36 19 62 66
56 103 -2 15 -5 32 -5 37 -1 6 -12 23 -25 38 -31 36 -81 43 -124 17z"/>
<path d="M9363 1315 c-57 -24 -80 -104 -48 -165 16 -30 61 -60 90 -60 29 0 74
30 90 60 32 62 9 141 -50 166 -41 17 -42 17 -82 -1z"/>
<path d="M9003 1185 c-82 -35 -83 -169 -2 -211 72 -37 149 18 149 105 0 55
-20 88 -66 107 -40 17 -41 17 -81 -1z"/>
<path d="M9253 805 c-88 -38 -81 -184 12 -215 71 -24 135 28 135 109 0 55 -20
88 -66 107 -40 17 -41 17 -81 -1z"/>
</g>
</svg>
